<svg width="40" height="40" viewBox="0 0 40 40" fill="none" xmlns="http://www.w3.org/2000/svg">
<rect width="40" height="40" rx="20" fill="#1F2937"/>
<path d="M19.995 18.0003C19.6305 18.0003 19.295 18.0892 18.9883 18.267C18.6816 18.4448 18.4394 18.687 18.2616 18.9937C18.0839 19.3003 17.995 19.6359 17.995 20.0003C17.995 20.3648 18.0839 20.7003 18.2616 21.007C18.4394 21.3137 18.6816 21.5559 18.9883 21.7337C19.295 21.9114 19.6305 22.0003 19.995 22.0003C20.3594 22.0003 20.695 21.9114 21.0016 21.7337C21.3083 21.5559 21.5505 21.3137 21.7283 21.007C21.9061 20.7003 21.995 20.3648 21.995 20.0003C21.995 19.6359 21.9061 19.3003 21.7283 18.9937C21.5505 18.687 21.3083 18.4448 21.0016 18.267C20.695 18.0892 20.3594 18.0003 19.995 18.0003ZM19.995 16.667C20.5994 16.667 21.1572 16.8159 21.6683 17.1137C22.1794 17.4114 22.5839 17.8159 22.8816 18.327C23.1794 18.8381 23.3283 19.3959 23.3283 20.0003C23.3283 20.6048 23.1794 21.1625 22.8816 21.6737C22.5839 22.1848 22.1794 22.5892 21.6683 22.887C21.1572 23.1848 20.5994 23.3337 19.995 23.3337C19.3905 23.3337 18.8328 23.1848 18.3216 22.887C17.8105 22.5892 17.4061 22.1848 17.1083 21.6737C16.8105 21.1625 16.6616 20.6048 16.6616 20.0003C16.6616 19.3959 16.8105 18.8381 17.1083 18.327C17.4061 17.8159 17.8105 17.4114 18.3216 17.1137C18.8328 16.8159 19.3905 16.667 19.995 16.667ZM24.3283 16.4937C24.3283 16.7248 24.2461 16.9225 24.0816 17.087C23.9172 17.2514 23.7216 17.3337 23.495 17.3337C23.2683 17.3337 23.0728 17.2514 22.9083 17.087C22.7439 16.9225 22.6616 16.727 22.6616 16.5003C22.6616 16.2737 22.7439 16.0781 22.9083 15.9137C23.0728 15.7492 23.2683 15.667 23.495 15.667C23.7216 15.667 23.9172 15.7492 24.0816 15.9137C24.2461 16.0781 24.3283 16.2714 24.3283 16.4937ZM19.995 14.667C19.1772 14.667 18.6216 14.6692 18.3283 14.6737C18.035 14.6781 17.6972 14.6892 17.315 14.707C16.835 14.7248 16.435 14.7959 16.115 14.9203C15.8394 15.027 15.5972 15.1848 15.3883 15.3937C15.1794 15.6025 15.0216 15.8448 14.915 16.1203C14.7905 16.4403 14.7194 16.8403 14.7016 17.3203C14.6839 17.6848 14.6728 18.0114 14.6683 18.3003C14.6639 18.5892 14.6616 19.1559 14.6616 20.0003C14.6616 20.8181 14.6639 21.3737 14.6683 21.667C14.6728 21.9603 14.6839 22.2981 14.7016 22.6803C14.7194 23.1603 14.7905 23.5603 14.915 23.8803C15.0216 24.1559 15.1794 24.3981 15.3883 24.607C15.5972 24.8159 15.8394 24.9692 16.115 25.067C16.435 25.2003 16.835 25.2759 17.315 25.2937C17.6794 25.3114 18.0061 25.3225 18.295 25.327C18.5839 25.3314 19.1505 25.3337 19.995 25.3337C20.8128 25.3337 21.3683 25.3314 21.6616 25.327C21.955 25.3225 22.2928 25.3114 22.675 25.2937C23.155 25.2759 23.555 25.2048 23.875 25.0803C24.1505 24.9737 24.3928 24.8159 24.6016 24.607C24.8105 24.3981 24.9639 24.1559 25.0616 23.8803C25.195 23.5603 25.2705 23.1603 25.2883 22.6803C25.3061 22.3159 25.3172 21.9892 25.3216 21.7003C25.3261 21.4114 25.3283 20.8448 25.3283 20.0003C25.3283 19.1825 25.3261 18.627 25.3216 18.3337C25.3172 18.0403 25.3061 17.7025 25.2883 17.3203C25.2705 16.8403 25.1994 16.4403 25.075 16.1203C24.9683 15.8448 24.8105 15.6025 24.6016 15.3937C24.3928 15.1848 24.1505 15.027 23.875 14.9203C23.555 14.7959 23.155 14.7248 22.675 14.707C22.3105 14.6892 21.9839 14.6781 21.695 14.6737C21.4061 14.6692 20.8394 14.667 19.995 14.667ZM19.995 13.3337C20.8661 13.3337 21.4616 13.3381 21.7816 13.347C22.0483 13.347 22.3683 13.3559 22.7416 13.3737C23.3639 13.4003 23.9016 13.5025 24.355 13.6803C24.8083 13.8581 25.2039 14.1159 25.5416 14.4537C25.8794 14.7914 26.1372 15.187 26.315 15.6403C26.4928 16.0937 26.595 16.6314 26.6216 17.2537C26.6394 17.6359 26.6483 17.9559 26.6483 18.2137C26.6572 18.5514 26.6616 19.1514 26.6616 20.0137C26.6616 20.8759 26.6572 21.467 26.6483 21.787C26.6483 22.0537 26.6394 22.3737 26.6216 22.747C26.595 23.3692 26.4928 23.907 26.315 24.3603C26.1372 24.8137 25.8794 25.2092 25.5416 25.547C25.2039 25.8848 24.8083 26.1425 24.355 26.3203C23.9016 26.4981 23.3639 26.6003 22.7416 26.627C22.3594 26.6448 22.0394 26.6537 21.7816 26.6537C21.4439 26.6625 20.8439 26.667 19.9816 26.667C19.1194 26.667 18.5283 26.6625 18.2083 26.6537C17.9416 26.6537 17.6216 26.6448 17.2483 26.627C16.6261 26.6003 16.0883 26.4981 15.635 26.3203C15.1816 26.1425 14.7861 25.8848 14.4483 25.547C14.1105 25.2092 13.8528 24.8137 13.675 24.3603C13.4972 23.907 13.395 23.3692 13.3683 22.747C13.3505 22.3648 13.3416 22.0448 13.3416 21.787C13.3328 21.4492 13.3283 20.8492 13.3283 19.987C13.3283 19.1248 13.3328 18.5337 13.3416 18.2137C13.3416 17.947 13.3505 17.627 13.3683 17.2537C13.395 16.6314 13.4972 16.0937 13.675 15.6403C13.8528 15.187 14.1105 14.7914 14.4483 14.4537C14.7861 14.1159 15.1816 13.8581 15.635 13.6803C16.0883 13.5025 16.6261 13.4003 17.2483 13.3737C17.6305 13.3559 17.9505 13.347 18.2083 13.347C18.5461 13.3381 19.1416 13.3337 19.995 13.3337Z" fill="white"/>
</svg>
