<svg width="40" height="40" viewBox="0 0 40 40" fill="none" xmlns="http://www.w3.org/2000/svg">
<rect width="40" height="40" rx="20" fill="#1F2937"/>
<path d="M19.835 18.2005C20.1461 17.8716 20.4927 17.6227 20.875 17.4538C21.2839 17.2671 21.715 17.1738 22.1683 17.1738C22.8261 17.1649 23.4372 17.3249 24.0016 17.6538C24.5661 17.9827 25.0127 18.4294 25.3416 18.9938C25.6705 19.5583 25.835 20.1694 25.835 20.8271V25.8271H24.5016V20.8271C24.5016 20.4094 24.395 20.0227 24.1816 19.6671C23.9683 19.3116 23.6839 19.0271 23.3283 18.8138C22.9727 18.6005 22.5839 18.4938 22.1616 18.4938C21.7394 18.4938 21.3505 18.6005 20.995 18.8138C20.6394 19.0271 20.3572 19.3116 20.1483 19.6671C19.9394 20.0227 19.835 20.4138 19.835 20.8405V25.8271H18.5016V17.4938H19.835V18.2005ZM15.155 16.1605C14.8794 16.1605 14.6439 16.0649 14.4483 15.8738C14.2527 15.6827 14.155 15.4471 14.155 15.1671C14.155 14.8871 14.2527 14.6516 14.4483 14.4605C14.6439 14.2694 14.8816 14.1716 15.1616 14.1671C15.4416 14.1627 15.6772 14.2583 15.8683 14.4538C16.0594 14.6494 16.155 14.8871 16.155 15.1671C16.155 15.4471 16.0594 15.6827 15.8683 15.8738C15.6772 16.0649 15.4394 16.1605 15.155 16.1605ZM14.4883 17.4938H15.8216V25.8271H14.4883V17.4938Z" fill="white"/>
</svg>
