<svg width="253" height="21" viewBox="0 0 253 21" fill="none" xmlns="http://www.w3.org/2000/svg">
<path d="M9.99003 17.22C12.84 17.22 15.27 15.57 16.41 13.17H19.53C18.21 17.19 14.46 20.07 9.99003 20.07C4.98003 20.07 0.810027 16.38 0.120027 11.55C0.0300269 11.07 2.69189e-05 10.59 2.69189e-05 10.08C2.69189e-05 9.6 0.0300269 9.15 0.0900269 8.67C0.780027 3.81 4.95003 0.0899994 9.99003 0.0899994C14.55 0.0899994 18.42 3.12 19.62 7.29H16.56C15.48 4.74 12.96 2.97 9.99003 2.97C6.57003 2.97 3.66003 5.43 3.03003 8.67C2.94003 9.12 2.88003 9.6 2.88003 10.08C2.88003 10.59 2.94003 11.07 3.03003 11.55C3.72003 14.79 6.57003 17.22 9.99003 17.22ZM26.3546 10.83V17.22H41.1146V20.07H23.4746V4.47H26.3546V7.95H39.1646V10.83H26.3546ZM23.4746 0.149999H41.1146V3.03H23.4746V0.149999ZM46.8839 17.22H59.5139V20.07H44.0039V-1.19209e-06H46.8839V17.22ZM65.5831 10.83V17.22H80.3431V20.07H62.7031V4.47H65.5831V7.95H78.3931V10.83H65.5831ZM62.7031 0.149999H80.3431V3.03H62.7031V0.149999ZM94.1464 8.67C96.2764 8.67 98.1364 9.84 99.1264 11.55C99.5764 12.39 99.8764 13.35 99.8764 14.37C99.8764 15.42 99.5764 16.38 99.1264 17.22C98.1364 18.93 96.2764 20.07 94.1464 20.07H87.9664C85.8364 20.07 83.9764 18.93 82.9864 17.22C82.5364 16.41 82.2664 15.51 82.2364 14.52H85.1164C85.2064 16.02 86.4364 17.22 87.9664 17.22H94.1464C95.7064 17.22 96.9964 15.93 96.9964 14.37C96.9964 12.81 95.7064 11.55 94.1464 11.55H87.9364C86.3464 11.55 84.8764 10.89 83.8564 9.81C83.5264 9.48 83.2264 9.09 82.9864 8.67C82.5064 7.86 82.2364 6.87 82.2364 5.85C82.2364 4.83 82.5064 3.87 82.9864 3.03C83.9764 1.32 85.8364 0.149999 87.9364 0.149999H93.9964C94.0564 0.149999 94.1164 0.149999 94.1464 0.149999C94.2064 0.149999 94.2364 0.149999 94.2964 0.149999C96.3664 0.209998 98.1364 1.35 99.0964 3.03C99.1264 3.03 99.1264 3.03 99.1264 3.03C99.5764 3.81 99.8464 4.74 99.8764 5.7H96.9964C96.9064 4.23 95.7364 3.09 94.2664 3.03H87.9364C86.3764 3.03 85.1164 4.29 85.1164 5.85C85.1164 7.32 86.2264 8.52 87.6664 8.67C87.7564 8.67 87.8464 8.67 87.9664 8.67C88.1164 8.67 88.2964 8.67 88.4464 8.67H94.1464ZM112.885 20.07H110.005V4.47H112.885V20.07ZM120.505 3.03H102.715V0.149999H120.505V3.03ZM123.369 20.07H126.249V0.119999H123.369V20.07ZM126.159 0.209998V19.98H123.459V0.209998H126.159ZM123.369 0.119999H126.249V20.07H123.369V0.119999ZM129.771 20.07L138.021 5.22L139.911 8.67L133.581 20.07H129.771ZM142.761 3.51L151.911 20.07H148.131L140.841 6.93L138.951 3.51L140.841 0.0899994L142.761 3.51ZM167.9 20.07V6.21L170.78 9.09V20.07H167.9ZM180.86 0.149999H183.71V19.98L180.86 17.13L170.78 7.05L167.9 4.17V0.119999L180.86 13.05V0.149999ZM196.26 3C192.33 3 189.15 6.21 189.15 10.11C189.15 14.04 192.33 17.22 196.26 17.22C200.16 17.22 203.34 14.04 203.34 10.11C203.34 6.21 200.16 3 196.26 3ZM186.27 10.11C186.27 4.59 190.74 0.149999 196.26 0.149999C201.75 0.149999 206.22 4.59 206.22 10.11C206.22 15.63 201.75 20.07 196.26 20.07C190.74 20.07 186.27 15.63 186.27 10.11ZM209.063 20.07H211.943V0.119999H209.063V20.07ZM211.853 0.209998V19.98H209.153V0.209998H211.853ZM209.063 0.119999H211.943V20.07H209.063V0.119999ZM227.075 9.78L233.345 20.07H229.985L224.255 10.68L224.075 10.41C224.075 10.41 224.075 10.41 224.045 10.41C223.985 10.44 223.955 10.44 223.895 10.47C223.865 10.47 223.865 10.47 223.835 10.47C223.775 10.5 223.685 10.5 223.625 10.53C223.445 10.56 223.265 10.59 223.115 10.62C223.055 10.65 222.995 10.65 222.965 10.65C222.935 10.65 222.905 10.65 222.875 10.68C222.815 10.68 222.755 10.68 222.695 10.68C222.665 10.71 222.635 10.71 222.605 10.71C222.545 10.71 222.455 10.71 222.395 10.74C222.305 10.74 222.245 10.74 222.155 10.74C222.065 10.77 221.975 10.77 221.915 10.77C221.885 10.77 221.885 10.77 221.855 10.77C221.825 10.77 221.765 10.77 221.705 10.77C221.675 10.77 221.615 10.77 221.585 10.77C221.525 10.77 221.465 10.77 221.375 10.77H217.685V20.07H214.805V0.0899994H231.335C231.365 0.329998 231.365 0.569999 231.365 0.809999C231.365 1.56 231.275 2.28 231.125 2.97C230.705 4.89 229.745 6.57 228.395 7.89C228.275 8.04 228.155 8.16 228.005 8.25C227.975 8.31 227.915 8.34 227.885 8.37L227.855 8.4C227.795 8.43 227.735 8.49 227.675 8.55C227.645 8.58 227.615 8.61 227.555 8.64C227.525 8.67 227.495 8.7 227.465 8.7C227.375 8.79 227.255 8.88 227.135 8.97C227.075 9 227.015 9.03 226.985 9.06H226.955C226.925 9.12 226.865 9.15 226.805 9.18C226.805 9.18 226.805 9.18 226.775 9.18C226.775 9.21 226.745 9.21 226.715 9.24L227.075 9.78ZM224.195 7.32C225.005 6.99 225.725 6.48 226.385 5.85C227.195 5.04 227.795 4.05 228.155 2.97H217.685V7.89H221.375C222.365 7.89 223.325 7.71 224.195 7.32ZM237.79 10.83V17.22H252.55V20.07H234.91V4.47H237.79V7.95H250.6V10.83H237.79ZM234.91 0.149999H252.55V3.03H234.91V0.149999Z" fill="white"/>
</svg>
